<?xml version="1.0" encoding="UTF-8" standalone="no"?>
<svg
   width="394.7319"
   height="413.59698"
   viewBox="0 0 394.7319 413.59696"
   version="1.1"
   id="svg365934"
   sodipodi:docname="leaderboard.svg"
   inkscape:version="1.2.2 (732a01da63, 2022-12-09)"
   xml:space="preserve"
   xmlns:inkscape="http://www.inkscape.org/namespaces/inkscape"
   xmlns:sodipodi="http://sodipodi.sourceforge.net/DTD/sodipodi-0.dtd"
   xmlns="http://www.w3.org/2000/svg"
   xmlns:svg="http://www.w3.org/2000/svg"
   xmlns:rdf="http://www.w3.org/1999/02/22-rdf-syntax-ns#"
   xmlns:cc="http://creativecommons.org/ns#"
   xmlns:dc="http://purl.org/dc/elements/1.1/"><defs
     id="defs365938"><inkscape:path-effect
       effect="mirror_symmetry"
       start_point="74.775922,16.621475"
       end_point="74.775922,148.31568"
       center_point="74.775922,82.468577"
       id="path-effect366104"
       is_visible="true"
       lpeversion="1.2"
       lpesatellites=""
       mode="free"
       discard_orig_path="false"
       fuse_paths="true"
       oposite_fuse="false"
       split_items="false"
       split_open="false"
       link_styles="false" /></defs><sodipodi:namedview
     id="namedview365936"
     pagecolor="#000000"
     bordercolor="#666666"
     borderopacity="1.0"
     inkscape:showpageshadow="2"
     inkscape:pageopacity="0"
     inkscape:pagecheckerboard="0"
     inkscape:deskcolor="#d1d1d1"
     showgrid="false"
     inkscape:zoom="1.5385565"
     inkscape:cx="231.06074"
     inkscape:cy="244.7099"
     inkscape:window-width="1718"
     inkscape:window-height="1363"
     inkscape:window-x="-8"
     inkscape:window-y="0"
     inkscape:window-maximized="0"
     inkscape:current-layer="g371789"
     showguides="true" /><title
     id="title365909">Group 39</title><metadata
     id="metadata366057"><rdf:RDF><cc:Work
         rdf:about=""><dc:title>Group 39</dc:title></cc:Work></rdf:RDF></metadata><g
     id="g371789"
     transform="translate(41.78323,12)"><path
       id="path366101-7"
       style="fill:#ffffff;stroke:#ffffff;stroke-width:0.999997px;stroke-linecap:butt;stroke-linejoin:miter;stroke-opacity:1"
       d="m 158.40614,-11.480589 c -7.33225,-0.008 -37.93318,-0.0404 -39.34116,0.002 -1.60023,0.0481 -3.06125,1.40399 -3.04428,4.1347604 0.017,2.73077 0.22588,10.8007796 0.22588,10.8007796 0,0 -22.063661,0.43993 -23.756991,0.46094 -1.69332,0.021 -2.96374,1.30181 -3.02031,2.98633 -0.0566,1.68452 -0.17856,15.97949 2.16469,24.99023 2.34327,9.01075 10.175411,27.577964 36.290041,32.917974 4.82025,6.79239 9.61763,12.70484 20.58267,16.73438 1.04869,19.365525 -7.34119,20.973985 -16.35422,21.412105 -1.26418,0.0475 -1.79785,1.12772 -1.81219,2.29688 -0.0144,1.16915 0.006,11.60866 0.0291,12.64062 0.023,1.03197 1.17518,2.01408 2.18524,2.06641 0.68412,0.0354 16.02293,0.0928 25.85155,0.125 9.82862,-0.0322 25.16742,-0.0896 25.85153,-0.125 1.01006,-0.0523 2.16389,-1.03444 2.18695,-2.06641 0.0231,-1.03196 0.0435,-11.47147 0.0291,-12.64062 -0.0144,-1.16916 -0.54801,-2.24938 -1.81219,-2.29688 -9.01304,-0.43812 -17.40462,-2.04658 -16.35593,-21.412105 10.96503,-4.02954 15.76412,-9.94199 20.58437,-16.73438 26.11463,-5.34001 33.94676,-23.907224 36.29002,-32.917974 2.34327,-9.01074 2.22127,-23.30571 2.1647,-24.99023 -0.0566,-1.68452 -1.32699,-2.96532 -3.0203,-2.98633 -1.69333,-0.021 -23.757,-0.46094 -23.757,-0.46094 0,0 0.20892,-8.0700096 0.22589,-10.8007796 0.017,-2.7307704 -1.44576,-4.0866604 -3.046,-4.1347604 -1.40797,-0.0423 -32.0089,-0.0103 -39.34114,-0.002 z m -54.98009,29.66796 13.00877,0.0801 c 0.57914,10.37147 1.50594,20.20041 3.79037,28.8418 -7.36366,-5.23693 -15.30275,-9.03597 -16.79914,-28.92188 z m 109.96015,0 c -1.49637,19.88591 -9.43546,23.68495 -16.79913,28.92188 2.28443,-8.64139 3.21122,-18.47033 3.79037,-28.8418 z" /><path
       id="rect366207"
       style="fill:#ffffff;stroke:none;stroke-width:8.733;stroke-dasharray:none;stop-color:#000000"
       d="m 115.04489,163.33203 c -4.42302,0 -7.98437,3.5594 -7.98437,7.98242 v 46.27107 l -5.9043,-0.0445 H 10.269504 c -3.2706572,0 -5.9023434,2.63365 -5.9023434,5.90429 v 126.69922 c 0,3.27067 2.6316862,5.9043 5.9023434,5.9043 H 307.79685 c 2.57662,0 4.65039,-2.07381 4.65039,-4.65039 V 248.43359 c 0,-2.57658 -2.07377,-4.65039 -4.65039,-4.65039 h -93.39258 l -4.65039,0.11193 v -72.58068 c 0,-4.42302 -3.56132,-7.98242 -7.98438,-7.98242 z m 46.78125,13.63281 h 7.47071 v 94.81641 H 157.7031 v -73.88281 c -2.79123,2.66238 -6.46184,5.32587 -11.01367,7.98828 -4.50891,2.66241 -8.56866,4.65903 -12.17579,5.99023 v -11.20898 c 6.48425,-3.04888 12.15344,-6.74098 17.00586,-11.07813 4.85245,-4.33712 8.28839,-8.54551 10.30664,-12.625 z M 50.300754,230.95703 c 9.208909,0 16.497008,2.55379 21.865235,7.66016 5.368226,5.10635 8.052734,11.43394 8.052734,18.98437 0,3.84069 -0.786233,7.61643 -2.357422,11.32617 -1.571188,3.70975 -4.189362,7.61622 -7.855469,11.71875 -3.622461,4.10256 -9.667807,9.733 -18.134765,16.89063 -7.070347,5.9356 -11.607605,9.97276 -13.615235,12.11133 -2.007628,2.09492 -3.667238,4.21104 -4.976562,6.34961 h 47.070312 v 11.32617 h -63.4375 c -0.08729,-2.83687 0.371187,-5.56494 1.375,-8.1836 1.614834,-4.32075 4.191391,-8.57578 7.726563,-12.76562 3.578818,-4.18984 8.728024,-9.03405 15.449219,-14.5332 10.430943,-8.55424 17.480378,-15.3195 21.146484,-20.29492 3.666106,-5.01909 5.498047,-9.75533 5.498047,-14.20704 0,-4.66991 -1.680418,-8.59718 -5.041016,-11.7832 -3.316952,-3.22966 -7.659117,-4.8457 -13.027343,-4.8457 -5.673736,0 -10.212946,1.70318 -13.617188,5.10742 -3.40424,3.40424 -5.128231,8.11774 -5.171875,14.14062 l -12.111328,-1.24414 c 0.829238,-9.03432 3.949458,-15.90751 9.361328,-20.62109 5.411871,-4.75721 12.679161,-7.13672 21.800781,-7.13672 z m 213.859376,21.55078 c 4.82718,0 9.27306,1.09679 13.33594,3.29102 4.06287,2.15203 7.15901,5.10582 9.29101,8.86133 2.17223,3.75551 3.25977,7.74321 3.25977,11.96289 0,4.00869 -1.02658,7.65787 -3.07813,10.94922 -2.05155,3.29134 -5.08868,5.90856 -9.11133,7.84961 5.22945,1.2659 9.29315,3.90341 12.18946,7.9121 2.8963,3.9665 4.34375,8.94557 4.34375,14.9375 0,8.10178 -2.81556,14.98041 -8.44727,20.63477 -5.6317,5.61217 -12.75286,8.41797 -21.36133,8.41797 -7.7637,0 -14.22015,-2.42667 -19.36914,-7.2793 -5.10876,-4.85262 -8.02397,-11.13932 -8.74804,-18.86133 l 10.86132,-1.51953 c 1.24703,6.4561 3.35723,11.11891 6.33399,13.98828 3.01698,2.82719 6.67819,4.24024 10.98242,4.24024 5.10876,0 9.41241,-1.857 12.91211,-5.57031 3.53993,-3.71332 5.31055,-8.3113 5.31055,-13.79688 0,-5.23239 -1.62838,-9.53832 -4.88672,-12.91406 -3.25835,-3.41794 -7.40138,-5.125 -12.42969,-5.125 -2.05155,0 -4.60685,0.42169 -7.66406,1.26562 L 259.09177,291.75 c 0.72408,0.0844 1.30751,0.12695 1.75,0.12695 4.62604,0 8.7894,-1.26507 12.49023,-3.79687 3.70084,-2.53181 5.55079,-6.43635 5.55079,-11.71094 0,-4.17748 -1.3478,-7.63612 -4.04297,-10.37891 -2.69518,-2.74278 -6.1735,-4.11523 -10.4375,-4.11523 -4.22378,0 -7.7447,1.39275 -10.56055,4.17773 -2.81585,2.78499 -4.62516,6.96324 -5.42969,12.53321 l -10.86133,-2.02539 c 1.32748,-7.63761 4.34429,-13.54518 9.05079,-17.72266 4.70649,-4.21967 10.55918,-6.33008 17.55859,-6.33008 z"
       sodipodi:nodetypes="ssccssssssssccsssccccccccscsssscccccccccccscsscccssccssccscsccccscscsccsssssscccs" /></g></svg>
